<svg xmlns="http://www.w3.org/2000/svg" width="1200" height="630" viewBox="0 0 1200 630" role="img" aria-labelledby="title desc">
  <title id="title">가평 모터수리·펌프수리 출장 전문</title>
  <desc id="desc">한일윌로모터펌프수리 파워펌프 양평서비스센터 공유 이미지</desc>
  <defs>
    <linearGradient id="bg" x1="0" y1="0" x2="1" y2="1">
      <stop offset="0" stop-color="#eff6ff"/>
      <stop offset="0.58" stop-color="#ffffff"/>
      <stop offset="1" stop-color="#dbeafe"/>
    </linearGradient>
    <filter id="shadow" x="-20%" y="-20%" width="140%" height="140%">
      <feDropShadow dx="0" dy="18" stdDeviation="24" flood-color="#1d4ed8" flood-opacity="0.16"/>
    </filter>
  </defs>
  <rect width="1200" height="630" fill="url(#bg)"/>
  <circle cx="1000" cy="94" r="190" fill="#bfdbfe" opacity="0.5"/>
  <circle cx="106" cy="550" r="210" fill="#dbeafe" opacity="0.72"/>
  <g filter="url(#shadow)">
    <rect x="76" y="70" width="1048" height="490" rx="34" fill="#ffffff" stroke="#dbeafe" stroke-width="2"/>
  </g>
  <g transform="translate(112 112)">
    <rect x="0" y="0" width="112" height="112" rx="28" fill="#1d4ed8"/>
    <path d="M56 22c-20 27-30 47-30 62 0 18 13 30 30 30s30-12 30-30c0-15-10-35-30-62z" fill="#ffffff" opacity="0.94"/>
    <path d="M42 84c7 8 21 8 28 0" fill="none" stroke="#1d4ed8" stroke-width="7" stroke-linecap="round"/>
  </g>
  <text x="112" y="286" fill="#111827" font-family="Pretendard, Apple SD Gothic Neo, Malgun Gothic, sans-serif" font-size="66" font-weight="800" letter-spacing="-1">
    가평 모터수리·펌프수리
  </text>
  <text x="112" y="364" fill="#1d4ed8" font-family="Pretendard, Apple SD Gothic Neo, Malgun Gothic, sans-serif" font-size="58" font-weight="800" letter-spacing="-1">
    윌로펌프·지하수펌프 출장 전문
  </text>
  <text x="112" y="432" fill="#4b5563" font-family="Pretendard, Apple SD Gothic Neo, Malgun Gothic, sans-serif" font-size="28" font-weight="500">
    청평 · 설악 · 상면 · 조종면 · 북면 전 지역 상담 가능
  </text>
  <g transform="translate(112 482)">
    <rect x="0" y="0" width="292" height="58" rx="29" fill="#1d4ed8"/>
    <text x="146" y="39" text-anchor="middle" fill="#ffffff" font-family="Pretendard, Apple SD Gothic Neo, Malgun Gothic, sans-serif" font-size="28" font-weight="800">010-4757-3396</text>
    <text x="330" y="38" fill="#374151" font-family="Pretendard, Apple SD Gothic Neo, Malgun Gothic, sans-serif" font-size="24" font-weight="700">파워펌프 양평서비스센터</text>
  </g>
</svg>
